<svg xmlns="http://www.w3.org/2000/svg" viewBox="0 0 694.88 318.93"><defs><style>.cls-1,.cls-5{fill:#68388d;}.cls-2{fill:none;stroke-width:2px;}.cls-2,.cls-5{stroke:#68388d;stroke-miterlimit:10;}.cls-3{fill:#ff4077;}.cls-4{fill:#fffdf7;}.cls-6{fill:#1f0734;}</style></defs><g id="Capa_2" data-name="Capa 2"><g id="Capa_1-2" data-name="Capa 1"><path class="cls-1" d="M17,311.65a46.51,46.51,0,0,1,9.64.67,10,10,0,0,1-3.38-4.41,16.18,16.18,0,0,1-1.07-6q0-6.74,3.45-9.78t10.48-3H52.83a12.35,12.35,0,0,0,7.78-2.29,7.4,7.4,0,0,1,1.48,3.11,14.85,14.85,0,0,1,.52,3.78q0,4.74-2.29,7.33c-1.53,1.73-3.86,2.6-7,2.6h-17a24,24,0,0,0-6.23.63,2.86,2.86,0,0,0-2.22,3.07,3.32,3.32,0,0,0,1.45,3,7.24,7.24,0,0,0,3.4,1.14c1.31.13,3,.19,5.08.19H61.5v14.52H9.63L8.15,311.65Z" transform="translate(-8.15 -7.38)"/><path class="cls-1" d="M27.38,249.44q5.15-5,14.71-5a25.06,25.06,0,0,1,11,2.3,17,17,0,0,1,7.37,6.71A20.22,20.22,0,0,1,63.13,264a20.64,20.64,0,0,1-2.52,10.42,17.1,17.1,0,0,1-7.11,6.78,23,23,0,0,1-10.67,2.37q-9.7,0-15.15-5.08T22.23,264Q22.23,254.45,27.38,249.44Zm26.79,10.67a66.23,66.23,0,0,0-11.71-.85,62.44,62.44,0,0,0-11.45.85q-4.34.86-4.33,3.89T31,267.89a61.44,61.44,0,0,0,11.45.86,65.16,65.16,0,0,0,11.71-.86q4.52-.84,4.52-3.89T54.17,260.11Z" transform="translate(-8.15 -7.38)"/><path class="cls-1" d="M8.15,224.36H52.83a12.29,12.29,0,0,0,7.78-2.3,7.5,7.5,0,0,1,1.48,3.12,14.85,14.85,0,0,1,.52,3.78c0,3.21-.76,5.66-2.29,7.37s-3.86,2.55-7,2.55H9.63Z" transform="translate(-8.15 -7.38)"/><path class="cls-1" d="M62,198.28a14.64,14.64,0,0,1,1.18,6A18.88,18.88,0,0,1,60.28,215a9.37,9.37,0,0,1-8.34,4.3q-7.11,0-9.56-6.74t-2.44-17.12H33.49a12.64,12.64,0,0,0-5.18.85,3.28,3.28,0,0,0-1.86,3.3q0,5.27,6.75,5.26a31.37,31.37,0,0,0,3.7-.3,4,4,0,0,1,.52,1.78,19.07,19.07,0,0,1,.15,2.23,10.78,10.78,0,0,1-1.52,5.92,5.12,5.12,0,0,1-4.63,2.37q-4.89,0-7-5.48A33.48,33.48,0,0,1,22.23,199q0-8.82,3.11-13.49t10.82-4.66H52.83a12.35,12.35,0,0,0,7.78-2.3,7.46,7.46,0,0,1,1.48,3.07,14.52,14.52,0,0,1,.52,3.75q0,6.88-4.44,9A7.37,7.37,0,0,1,62,198.28Zm-6.3-1.78a12.19,12.19,0,0,0-5.48-1.11H43.64q0,4.67,1.86,7t6.15,2.37a8,8,0,0,0,4.48-1.15,3.92,3.92,0,0,0,1.74-3.52A3.77,3.77,0,0,0,55.65,196.5Z" transform="translate(-8.15 -7.38)"/><path class="cls-1" d="M13,163.34a8.46,8.46,0,0,1,5.71-1.74,88.33,88.33,0,0,1,9.63.74L47.27,164a6.06,6.06,0,0,1,.89,3.56,5.54,5.54,0,0,1-.77,3.22,3.94,3.94,0,0,1-2.19,1.48,20.36,20.36,0,0,1-3.93.63l-27.86,2.3a6.91,6.91,0,0,1-1.74-2.85,11.11,11.11,0,0,1-.63-3.67A6.67,6.67,0,0,1,13,163.34Zm39.64-1.29a5.08,5.08,0,0,1,4.38-2.15,5,5,0,0,1,4.37,2.26A10.15,10.15,0,0,1,63,168.05a9.81,9.81,0,0,1-1.52,5.74A4.88,4.88,0,0,1,57.2,176a5.12,5.12,0,0,1-4.48-2.34,10.22,10.22,0,0,1-1.59-5.89A9.55,9.55,0,0,1,52.68,162.05Z" transform="translate(-8.15 -7.38)"/><path class="cls-1" d="M27.45,129.48a3.65,3.65,0,0,0,2.71,1,5.65,5.65,0,0,0,3.52-1.15,11.07,11.07,0,0,0,2.63-2.85c.74-1.14,1.63-2.69,2.67-4.67,1.23-2.27,2.31-4.07,3.22-5.41A13.59,13.59,0,0,1,45.61,113a8.12,8.12,0,0,1,4.85-1.45q6.6,0,9.63,4.85t3,12.71a28.52,28.52,0,0,1-1.89,10.75c-1.26,3.11-3.34,4.66-6.26,4.66a5.06,5.06,0,0,1-4.56-2.4,11,11,0,0,1-1.51-6,21.27,21.27,0,0,1,.14-2.22,4.14,4.14,0,0,1,.52-1.78,31.51,31.51,0,0,0,3.71.3,8.36,8.36,0,0,0,4.15-.86,3.14,3.14,0,0,0,1.48-3,3.77,3.77,0,0,0-1.3-3,5,5,0,0,0-3.37-1.12,5.72,5.72,0,0,0-3.52,1.15,11.28,11.28,0,0,0-2.63,2.86c-.74,1.13-1.63,2.69-2.67,4.66a51.21,51.21,0,0,1-3.18,5.45A13.91,13.91,0,0,1,38.79,142a8.14,8.14,0,0,1-4.85,1.45q-6.07,0-8.89-4.89a24,24,0,0,1-2.82-12.16,29.68,29.68,0,0,1,1.7-10.26c1.14-3.08,3-4.63,5.56-4.63A4.92,4.92,0,0,1,33.83,114a10.61,10.61,0,0,1,1.59,5.78,19,19,0,0,1-.15,2.22,4,4,0,0,1-.52,1.78,17.13,17.13,0,0,0-1.85-.22c-.69,0-1.31-.07-1.85-.07a6.11,6.11,0,0,0-3.3.81,2.77,2.77,0,0,0-1.3,2.52A3.58,3.58,0,0,0,27.45,129.48Z" transform="translate(-8.15 -7.38)"/><path class="cls-1" d="M27.38,73.76q5.15-5,14.71-5a25.06,25.06,0,0,1,11,2.29,17.06,17.06,0,0,1,7.37,6.71,20.28,20.28,0,0,1,2.63,10.56,20.63,20.63,0,0,1-2.52,10.41,17,17,0,0,1-7.11,6.78,23,23,0,0,1-10.67,2.37q-9.7,0-15.15-5.07T22.23,88.32Q22.23,78.77,27.38,73.76ZM54.17,84.43a65.29,65.29,0,0,0-11.71-.85A61.57,61.57,0,0,0,31,84.43c-2.89.57-4.33,1.86-4.33,3.89s1.44,3.32,4.33,3.89a61.57,61.57,0,0,0,11.45.85,65.29,65.29,0,0,0,11.71-.85c3-.57,4.52-1.86,4.52-3.89S57.18,85,54.17,84.43Z" transform="translate(-8.15 -7.38)"/><path class="cls-1" d="M23.71,26.82,75.8,45.27l-1,14.52L57.13,51.05V56.6L23.71,65.94V50.75L51.28,45,23.71,38.75Z" transform="translate(-8.15 -7.38)"/><path class="cls-2" d="M90.75,33.55h41V142.7h34.47l-1.92,17.23H90.75Z" transform="translate(-8.15 -7.38)"/><path class="cls-2" d="M224.4,161.08a37.86,37.86,0,0,1-15.51,3.06q-16.47,0-27.58-7.37t-11.1-21.54q0-18.39,17.42-24.7t44.23-6.32V87.55q0-8.61-2.2-13.4t-8.52-4.79q-13.59,0-13.59,17.42a82.29,82.29,0,0,0,.76,9.58,10.35,10.35,0,0,1-4.59,1.34,49,49,0,0,1-5.75.38q-9.19,0-15.32-3.92t-6.12-12q0-12.64,14.17-18.19a86.5,86.5,0,0,1,31.78-5.56q22.78,0,34.85,8t12.06,28v43.09q0,12.45,5.94,20.1a19.61,19.61,0,0,1-7.95,3.83,38,38,0,0,1-9.67,1.34q-17.8,0-23.36-11.49A19.07,19.07,0,0,1,224.4,161.08ZM229,144.8q2.88-5.75,2.87-14.17V113.78q-12.06,0-18.19,4.79t-6.12,15.89q0,7.09,3,11.59t9.1,4.5A9.75,9.75,0,0,0,229,144.8Z" transform="translate(-8.15 -7.38)"/><path class="cls-2" d="M326.26,80.94q-1.33,6-1.34,17.72v61.27H287.39V62.27L317.65,60l1.53,17.23a27.56,27.56,0,0,1,10.43-13.88,29.39,29.39,0,0,1,16.95-4.89q12.26,0,19.44,6.8t7.18,18.86q0,10.16-5.65,15.8t-16,5.65a41.85,41.85,0,0,1-5.84-.48,11.18,11.18,0,0,1-4.69-1.44,50.68,50.68,0,0,0,1.15-11.29q0-17.43-9-17.43Q327.59,74.91,326.26,80.94Z" transform="translate(-8.15 -7.38)"/><path class="cls-2" d="M429.09,161.08a37.86,37.86,0,0,1-15.51,3.06q-16.47,0-27.58-7.37t-11.1-21.54q0-18.39,17.42-24.7t44.23-6.32V87.55q0-8.61-2.2-13.4t-8.52-4.79q-13.59,0-13.59,17.42a82.29,82.29,0,0,0,.76,9.58,10.35,10.35,0,0,1-4.59,1.34,49,49,0,0,1-5.75.38q-9.2,0-15.32-3.92t-6.12-12q0-12.64,14.17-18.19a86.5,86.5,0,0,1,31.78-5.56q22.79,0,34.85,8t12.06,28v43.09q0,12.45,5.94,20.1a19.67,19.67,0,0,1-7.95,3.83,38,38,0,0,1-9.67,1.34q-17.81,0-23.36-11.49A19.07,19.07,0,0,1,429.09,161.08Zm4.59-16.28q2.88-5.75,2.87-14.17V113.78q-12.06,0-18.19,4.79t-6.12,15.89q0,7.09,3,11.59t9.1,4.5A9.75,9.75,0,0,0,433.68,144.8Z" transform="translate(-8.15 -7.38)"/><path class="cls-2" d="M90.75,194.46h41V303.6h34.47l-1.92,17.24H90.75Z" transform="translate(-8.15 -7.38)"/><path class="cls-2" d="M261.93,292.4a15.48,15.48,0,0,1,1.34,6.42,20.14,20.14,0,0,1-5.75,14.55,34.85,34.85,0,0,1-14.65,8.81,60.55,60.55,0,0,1-18.67,2.87q-24.69,0-38.2-14.27t-13.5-39.54q0-25.65,14.27-38.77t40.5-13.12q16.85,0,28.53,6.9t11.68,20.87q0,17.24-12.45,23.64t-34.27,6.42a62.32,62.32,0,0,1-9.77-.58q.76,12.07,5.46,18.67t15.41,6.61a33.79,33.79,0,0,0,15.32-3.54,24.2,24.2,0,0,0,10.73-10.25A8.64,8.64,0,0,1,261.93,292.4Zm-33-29.1q5.83-4.69,5.84-16.18a25.27,25.27,0,0,0-2.4-11.59,8.1,8.1,0,0,0-7.75-4.69q-13.22,0-13.79,37.15Q223.06,268,228.9,263.3Z" transform="translate(-8.15 -7.38)"/><path class="cls-2" d="M312.38,232.85a9.48,9.48,0,0,0-2.59,7,14.67,14.67,0,0,0,3,9.1,29.1,29.1,0,0,0,7.37,6.79q4.41,2.88,12.07,6.9,8.81,4.78,14,8.33a35.42,35.42,0,0,1,8.9,8.8,21.16,21.16,0,0,1,3.73,12.55q0,17-12.54,24.89t-32.84,7.85q-15.71,0-27.76-4.88T273.6,304q0-7.86,6.23-11.78t15.41-3.92a49,49,0,0,1,5.75.38,10.35,10.35,0,0,1,4.59,1.34,82.15,82.15,0,0,0-.76,9.57q0,6.9,2.2,10.73c1.46,2.55,4.05,3.83,7.75,3.83a9.78,9.78,0,0,0,7.85-3.36,12.87,12.87,0,0,0,2.88-8.71,14.62,14.62,0,0,0-3-9.09,29,29,0,0,0-7.37-6.8q-4.41-2.88-12.07-6.89A136.88,136.88,0,0,1,289,271.05a36.07,36.07,0,0,1-9-8.9,21.1,21.1,0,0,1-3.73-12.54q0-15.71,12.63-23t31.41-7.28a76.22,76.22,0,0,1,26.52,4.41q12,4.4,12,14.36,0,7.08-6.51,11.2a27.3,27.3,0,0,1-14.93,4.12,49,49,0,0,1-5.75-.39,10.22,10.22,0,0,1-4.59-1.34,46.94,46.94,0,0,0,.57-4.78c.13-1.79.19-3.39.19-4.79a15.77,15.77,0,0,0-2.1-8.52,7.17,7.17,0,0,0-6.51-3.35A9.2,9.2,0,0,0,312.38,232.85Z" transform="translate(-8.15 -7.38)"/><path class="cls-2" d="M363.79,231.8v-5.94a124.78,124.78,0,0,0,20.77-10.05,90.46,90.46,0,0,0,18.1-13.5h10.72v20.87h17.43v8.62H413.38v66.82q0,5.94,2.3,9.29t7.66,4.69a17.56,17.56,0,0,1-9.19,8.43,35.07,35.07,0,0,1-13.79,2.68q-11.87,0-18.19-6.13t-6.32-17.81v-68Z" transform="translate(-8.15 -7.38)"/><path class="cls-2" d="M522.33,292.4a15.32,15.32,0,0,1,1.34,6.42,20.13,20.13,0,0,1-5.74,14.55,34.85,34.85,0,0,1-14.65,8.81,60.55,60.55,0,0,1-18.67,2.87q-24.69,0-38.2-14.27t-13.5-39.54q0-25.65,14.27-38.77t40.5-13.12q16.85,0,28.53,6.9t11.68,20.87q0,17.24-12.45,23.64t-34.27,6.42a62.23,62.23,0,0,1-9.77-.58q.77,12.07,5.46,18.67t15.41,6.61a33.79,33.79,0,0,0,15.32-3.54,24.12,24.12,0,0,0,10.72-10.25A8.56,8.56,0,0,1,522.33,292.4Zm-33-29.1q5.85-4.69,5.84-16.18a25.27,25.27,0,0,0-2.39-11.59,8.11,8.11,0,0,0-7.75-4.69q-13.22,0-13.79,37.15Q483.47,268,489.3,263.3Z" transform="translate(-8.15 -7.38)"/><path class="cls-2" d="M578.63,241.85q-1.35,6-1.34,17.71v61.28H539.76V223.18l30.25-2.3,1.53,17.24A27.59,27.59,0,0,1,582,224.23a29.41,29.41,0,0,1,16.94-4.88q12.26,0,19.44,6.8T625.54,245q0,10.16-5.65,15.8t-16,5.65a41.85,41.85,0,0,1-5.84-.48,11.24,11.24,0,0,1-4.69-1.44,50.19,50.19,0,0,0,1.15-11.3q0-17.42-9-17.42Q580,235.82,578.63,241.85Z" transform="translate(-8.15 -7.38)"/><path class="cls-3" d="M85.38,34.81h41V144h34.47l-1.92,17.23H85.38Z" transform="translate(-8.15 -7.38)"/><path class="cls-3" d="M219,162.34a37.86,37.86,0,0,1-15.51,3.06q-16.47,0-27.58-7.37t-11.1-21.54q0-18.38,17.42-24.7t44.23-6.32V88.81q0-8.61-2.2-13.4t-8.52-4.79q-13.59,0-13.59,17.43a82.15,82.15,0,0,0,.76,9.57A10.22,10.22,0,0,1,198.35,99a48.83,48.83,0,0,1-5.75.38q-9.18,0-15.32-3.92t-6.12-12q0-12.65,14.17-18.19a86.5,86.5,0,0,1,31.78-5.55q22.78,0,34.85,8T264,95.7v43.09q0,12.45,5.94,20.1a19.54,19.54,0,0,1-7.95,3.83,38,38,0,0,1-9.67,1.34q-17.81,0-23.36-11.49A19.07,19.07,0,0,1,219,162.34Zm4.59-16.28q2.88-5.75,2.87-14.17V115q-12.06,0-18.19,4.79t-6.12,15.89q0,7.09,3,11.59t9.1,4.5A9.75,9.75,0,0,0,223.62,146.06Z" transform="translate(-8.15 -7.38)"/><path class="cls-3" d="M320.89,82.21q-1.33,6-1.34,17.71v61.27H282V63.54l30.26-2.3,1.53,17.23a27.56,27.56,0,0,1,10.43-13.88,29.39,29.39,0,0,1,16.95-4.88q12.26,0,19.44,6.79t7.18,18.86q0,10.15-5.65,15.8t-16,5.65a41.85,41.85,0,0,1-5.84-.48,11.21,11.21,0,0,1-4.69-1.43,50.83,50.83,0,0,0,1.15-11.3q0-17.43-9-17.43C324.08,76.17,321.79,78.18,320.89,82.21Z" transform="translate(-8.15 -7.38)"/><path class="cls-3" d="M423.72,162.34a37.86,37.86,0,0,1-15.51,3.06q-16.47,0-27.58-7.37t-11.1-21.54q0-18.38,17.42-24.7t44.23-6.32V88.81q0-8.61-2.2-13.4t-8.52-4.79q-13.59,0-13.59,17.43a82.15,82.15,0,0,0,.76,9.57A10.22,10.22,0,0,1,403,99a48.83,48.83,0,0,1-5.75.38q-9.18,0-15.32-3.92t-6.12-12q0-12.65,14.17-18.19a86.5,86.5,0,0,1,31.78-5.55q22.79,0,34.85,8t12.06,28v43.09q0,12.45,5.94,20.1a19.54,19.54,0,0,1-7.95,3.83,38,38,0,0,1-9.67,1.34q-17.8,0-23.36-11.49A19.07,19.07,0,0,1,423.72,162.34Zm4.59-16.28q2.88-5.75,2.87-14.17V115q-12.06,0-18.19,4.79t-6.12,15.89q0,7.09,3,11.59t9.1,4.5A9.75,9.75,0,0,0,428.31,146.06Z" transform="translate(-8.15 -7.38)"/><path class="cls-3" d="M85.38,195.72h41V304.87h34.47L158.9,322.1H85.38Z" transform="translate(-8.15 -7.38)"/><path class="cls-3" d="M256.56,293.66a15.48,15.48,0,0,1,1.34,6.42,20.12,20.12,0,0,1-5.75,14.55,34.85,34.85,0,0,1-14.65,8.81,60.49,60.49,0,0,1-18.66,2.87q-24.71,0-38.2-14.26t-13.5-39.54q0-25.66,14.26-38.78t40.5-13.12q16.85,0,28.53,6.9t11.68,20.87q0,17.24-12.45,23.65t-34.27,6.41a63.81,63.81,0,0,1-9.77-.57q.76,12.06,5.46,18.67t15.41,6.6a33.79,33.79,0,0,0,15.32-3.54,24.18,24.18,0,0,0,10.73-10.24A8.62,8.62,0,0,1,256.56,293.66Zm-33-29.1q5.83-4.69,5.84-16.18a25.27,25.27,0,0,0-2.4-11.59,8.1,8.1,0,0,0-7.75-4.69q-13.22,0-13.79,37.15Q217.69,269.25,223.53,264.56Z" transform="translate(-8.15 -7.38)"/><path class="cls-3" d="M307,234.11a9.48,9.48,0,0,0-2.59,7,14.67,14.67,0,0,0,3,9.1,29,29,0,0,0,7.38,6.8q4.39,2.87,12.06,6.89,8.81,4.78,14,8.33a35.46,35.46,0,0,1,8.9,8.81,21.1,21.1,0,0,1,3.73,12.54q0,17-12.54,24.89t-32.84,7.85q-15.71,0-27.76-4.88t-12.06-16.18q0-7.85,6.22-11.78c4.14-2.61,9.29-3.92,15.41-3.92a51.23,51.23,0,0,1,5.75.38,10.35,10.35,0,0,1,4.59,1.34,82.31,82.31,0,0,0-.76,9.57q0,6.9,2.2,10.73c1.46,2.55,4.05,3.83,7.75,3.83a9.8,9.8,0,0,0,7.85-3.35,12.92,12.92,0,0,0,2.88-8.72,14.66,14.66,0,0,0-3-9.09,29.14,29.14,0,0,0-7.37-6.8q-4.41-2.87-12.07-6.89a136.88,136.88,0,0,1-14.07-8.24,36.07,36.07,0,0,1-9-8.9,21.1,21.1,0,0,1-3.73-12.54q0-15.7,12.63-23T315,220.61A76.22,76.22,0,0,1,341.48,225q12,4.41,12,14.36,0,7.08-6.51,11.2A27.3,27.3,0,0,1,332,254.7a49,49,0,0,1-5.75-.39,10.22,10.22,0,0,1-4.59-1.34,46.59,46.59,0,0,0,.57-4.78c.13-1.79.19-3.38.19-4.79a15.77,15.77,0,0,0-2.1-8.52,7.17,7.17,0,0,0-6.51-3.35A9.2,9.2,0,0,0,307,234.11Z" transform="translate(-8.15 -7.38)"/><path class="cls-3" d="M358.42,233.06v-5.94a123.65,123.65,0,0,0,20.78-10.05,90.66,90.66,0,0,0,18.09-13.5H408v20.87h17.43v8.62H408v66.83q0,5.94,2.3,9.28t7.66,4.69a17.52,17.52,0,0,1-9.19,8.43A34.89,34.89,0,0,1,395,325q-11.87,0-18.19-6.13T370.48,301v-68Z" transform="translate(-8.15 -7.38)"/><path class="cls-3" d="M517,293.66a15.33,15.33,0,0,1,1.35,6.42,20.12,20.12,0,0,1-5.75,14.55,34.85,34.85,0,0,1-14.65,8.81,60.55,60.55,0,0,1-18.67,2.87q-24.69,0-38.2-14.26t-13.5-39.54q0-25.66,14.27-38.78t40.5-13.12q16.85,0,28.53,6.9t11.68,20.87q0,17.24-12.45,23.65t-34.27,6.41a63.72,63.72,0,0,1-9.77-.57q.77,12.06,5.46,18.67t15.41,6.6a33.79,33.79,0,0,0,15.32-3.54,24.1,24.1,0,0,0,10.72-10.24A8.54,8.54,0,0,1,517,293.66Zm-33-29.1q5.85-4.69,5.84-16.18a25.27,25.27,0,0,0-2.39-11.59,8.11,8.11,0,0,0-7.75-4.69q-13.22,0-13.79,37.15Q478.1,269.25,483.93,264.56Z" transform="translate(-8.15 -7.38)"/><path class="cls-3" d="M573.26,243.11q-1.35,6-1.34,17.71V322.1H534.39V224.44l30.25-2.29,1.53,17.23a27.52,27.52,0,0,1,10.44-13.88,29.36,29.36,0,0,1,16.94-4.89q12.26,0,19.44,6.8t7.18,18.86q0,10.15-5.65,15.8t-16,5.65a41.85,41.85,0,0,1-5.84-.48A11.24,11.24,0,0,1,588,265.8a50.09,50.09,0,0,0,1.15-11.29q0-17.43-9-17.43Q574.6,237.08,573.26,243.11Z" transform="translate(-8.15 -7.38)"/><path class="cls-4" d="M568.28,15a6.5,6.5,0,0,1,7.18-1.06,8.2,8.2,0,0,1,1.76,1.24l.41-5.43-2.79.51h-.11a.84.84,0,0,1-.62-.37,1,1,0,0,1-.23-.69.69.69,0,0,1,.31-.63,3,3,0,0,1,.66-.23l4.56-.93h.17a.59.59,0,0,1,.42.19.5.5,0,0,1,.16.42l-1.34,17.55,1.7-.12h.31a1.27,1.27,0,0,1,.73.27.74.74,0,0,1,.23.63c0,.59-.41.91-1.09,1s-1.28.07-1.78.08l-1,.08a6.18,6.18,0,0,1-.94,0,.53.53,0,0,1-.51-.34,1.61,1.61,0,0,1-.08-.67l.06-.78A6.08,6.08,0,0,1,574.58,27a4.78,4.78,0,0,1-2.48.43A6,6,0,0,1,567.49,25a7.52,7.52,0,0,1-1.33-5.17A7.41,7.41,0,0,1,568.28,15Zm1.21,8.67a3.42,3.42,0,0,0,2.92,1.75,4.57,4.57,0,0,0,2.43-.42,5.35,5.35,0,0,0,1.74-1.35l.49-6.45a5.26,5.26,0,0,0-1.67-1.3,5.93,5.93,0,0,0-2.34-.6A3.27,3.27,0,0,0,570,16.62a6.36,6.36,0,0,0-1.26,3.43A6.21,6.21,0,0,0,569.49,23.67Z" transform="translate(-8.15 -7.38)"/><path class="cls-4" d="M583.41,26.6a.75.75,0,0,1,.71-.19l1.56.29,1.71-9.25-1.71.14h-.07l-.1,0a.94.94,0,0,1-.59-.39.91.91,0,0,1-.18-.69,1.2,1.2,0,0,1,.28-.6.8.8,0,0,1,.55-.24l3.83-.24h.08l.1,0a.64.64,0,0,1,.4.22.5.5,0,0,1,.09.42l-2,11.07,1.76.32a.69.69,0,0,1,.57.43,1.41,1.41,0,0,1,.06.77,1,1,0,0,1-.35.61.74.74,0,0,1-.67.16l-5.58-1a.88.88,0,0,1-.66-.38,1.06,1.06,0,0,1-.1-.74A1.2,1.2,0,0,1,583.41,26.6Zm4.89-14.86a1.72,1.72,0,0,1-.29-1.32,1.69,1.69,0,0,1,.74-1.13A1.72,1.72,0,0,1,590.07,9a1.69,1.69,0,0,1,1.13.74,1.76,1.76,0,0,1-1.77,2.74A1.66,1.66,0,0,1,588.3,11.74Z" transform="translate(-8.15 -7.38)"/><path class="cls-4" d="M597.21,17.87a7.6,7.6,0,0,1,3.51.19,5.89,5.89,0,0,1,2.13,1.11A3.13,3.13,0,0,1,604,20.82l.28-.93a.72.72,0,0,1,.4-.48,1,1,0,0,1,.65,0,1.17,1.17,0,0,1,.68.43.88.88,0,0,1,.06.72l-1,3.2a.86.86,0,0,1-.46.49,1,1,0,0,1-.68,0c-.25-.07-.39-.19-.43-.36a2.78,2.78,0,0,1-.05-.7,3.19,3.19,0,0,0-1.06-2.25,5.39,5.39,0,0,0-2.21-1.31,4,4,0,0,0-1.92-.1,1.33,1.33,0,0,0-1.11,1,1.38,1.38,0,0,0,.15,1.23,3.94,3.94,0,0,0,1.3,1.07l2.59,1.75a12.75,12.75,0,0,1,2.36,2,3,3,0,0,1,.47,3A3.42,3.42,0,0,1,602,32a6,6,0,0,1-3.84-.05,10.29,10.29,0,0,1-2.51-1.13,4.26,4.26,0,0,1-1.76-1.67q-.23.75-.54.9a1,1,0,0,1-.71,0,1.28,1.28,0,0,1-.65-.39.74.74,0,0,1-.11-.72L593,25.24a.68.68,0,0,1,.42-.45,1,1,0,0,1,.63,0,.94.94,0,0,1,.63.42,1.8,1.8,0,0,1,.11.75,3.54,3.54,0,0,0,1,2.72,6,6,0,0,0,2.83,1.62,4.12,4.12,0,0,0,2,.12,1.49,1.49,0,0,0,1.16-1.13,2,2,0,0,0-.06-1.5,4.15,4.15,0,0,0-1.37-1.23l-2.77-1.81a10.16,10.16,0,0,1-2.18-1.9,2.58,2.58,0,0,1-.47-2.49A3,3,0,0,1,597.21,17.87Z" transform="translate(-8.15 -7.38)"/><path class="cls-4" d="M609.24,28.34a4.43,4.43,0,0,0,0,3.83A5.16,5.16,0,0,0,612,34.64a4.12,4.12,0,0,0,2.35.38,11.77,11.77,0,0,0,2-.54,1.11,1.11,0,0,1,.43-.07,1,1,0,0,1,.39.08,1.18,1.18,0,0,1,.63.57,1,1,0,0,1,0,.82c-.39.92-1.35,1.36-2.89,1.34a10.46,10.46,0,0,1-3.79-.65,7.47,7.47,0,0,1-4.13-3.75,6.54,6.54,0,0,1,0-5.49,7,7,0,0,1,3.72-4,6.74,6.74,0,0,1,5.5.13,6.4,6.4,0,0,1,3.29,3.14,5.32,5.32,0,0,1,.15,4.64c-.23.55-.53.81-.91.78a6.71,6.71,0,0,1-1.36-.28Zm8-1.58a3.83,3.83,0,0,0-1.79-1.49,5,5,0,0,0-3.38-.33,3.67,3.67,0,0,0-2.25,1.9l6.45,2.68a1.42,1.42,0,0,0,.6.11.46.46,0,0,0,.41-.31A2.61,2.61,0,0,0,617.24,26.76Z" transform="translate(-8.15 -7.38)"/><path class="cls-4" d="M628.81,32.86a3.11,3.11,0,0,0-2.5,1.55l-3.09,5.36,1.47.84a.71.71,0,0,1,.39.6,1.49,1.49,0,0,1-.21.74,1.17,1.17,0,0,1-.53.48.71.71,0,0,1-.69-.06l-4.71-2.71a.87.87,0,0,1-.48-.6,1.08,1.08,0,0,1,.16-.74,1.22,1.22,0,0,1,.55-.53.75.75,0,0,1,.73.07l1.25.72,4.67-8.11L624.18,30l-.06,0-.09-.05a.91.91,0,0,1-.42-.57.87.87,0,0,1,.06-.71,1,1,0,0,1,.46-.46.87.87,0,0,1,.6-.05L628,29l0,0,.05,0,.07,0a.66.66,0,0,1,.29.33.48.48,0,0,1,0,.42l-.89,2a5.22,5.22,0,0,1,2.67-.64,5.78,5.78,0,0,1,3,.79,4.63,4.63,0,0,1,2.35,2.83,4.68,4.68,0,0,1-.62,3.64l-3.51,6.08,1.26.73a.68.68,0,0,1,.4.59,1.42,1.42,0,0,1-.21.75,1.12,1.12,0,0,1-.53.48.79.79,0,0,1-.7-.06l-4.9-2.83a.86.86,0,0,1-.49-.6,1.07,1.07,0,0,1,.16-.74,1.19,1.19,0,0,1,.56-.53.74.74,0,0,1,.73.06l1.69,1,3.41-5.92a3.19,3.19,0,0,0,.48-2.24,2.63,2.63,0,0,0-1.43-1.74A4.89,4.89,0,0,0,628.81,32.86Zm2-6.9a1.88,1.88,0,0,1,1.79,0,3.48,3.48,0,0,1,1.6,1.87,2.81,2.81,0,0,0,.87,1.45.94.94,0,0,0,1.26-.22c.41-.4.73-.53,1-.39a1.21,1.21,0,0,1,.44.43.52.52,0,0,1,0,.54A3.19,3.19,0,0,1,636,31.2a2.42,2.42,0,0,1-2-.18,3,3,0,0,1-1.28-1.69,2.68,2.68,0,0,0-1-1.51.9.9,0,0,0-1.2.25c-.38.41-.68.56-.89.44a1.21,1.21,0,0,1-.44-.43.51.51,0,0,1,0-.53A3.52,3.52,0,0,1,630.85,26Z" transform="translate(-8.15 -7.38)"/><path class="cls-4" d="M643.87,55.87a4.49,4.49,0,0,1-2-.72,2.35,2.35,0,0,1-.94-1.3,2.39,2.39,0,0,1,.24-1.61,5,5,0,0,1-2.62-.22,9.39,9.39,0,0,1-2.61-1.42,4.28,4.28,0,0,1-1.69-2.67,3.62,3.62,0,0,1,.76-3,3.55,3.55,0,0,1,4.73-1.15,45.17,45.17,0,0,1,5.3,2.88l1.14-1.49a1.28,1.28,0,0,0,.16-1.47,4.09,4.09,0,0,0-1.11-1.31,6.89,6.89,0,0,0-2.17-1.23,14.32,14.32,0,0,0-2.2-.35l-.22,0-.18-.1a.89.89,0,0,1-.33-.73,1.21,1.21,0,0,1,.22-.81q.85-1.1,2.76-.24a16.29,16.29,0,0,1,3.06,1.74c1.55,1.2,2.36,2.35,2.42,3.45a6.38,6.38,0,0,1-1.68,4l-3.57,4.64a1.22,1.22,0,0,0-.27.55.4.4,0,0,0,.16.42,1.77,1.77,0,0,0,1.31.22,1.87,1.87,0,0,1,1.24.16.8.8,0,0,1,.22.6,1,1,0,0,1-.19.7A1.89,1.89,0,0,1,643.87,55.87Zm.1-7.78q-1.58-1-3.66-2.07c-1.4-.73-2.49-.59-3.28.44a1.62,1.62,0,0,0-.31,1.6,3,3,0,0,0,1.09,1.45,5.54,5.54,0,0,0,2,1,8.4,8.4,0,0,0,2.08.26Z" transform="translate(-8.15 -7.38)"/><path class="cls-4" d="M654.25,49.89A5.82,5.82,0,0,1,659,51.78a6,6,0,0,1,1.38,2,8.76,8.76,0,0,1,.52,2.09L664.76,52l-2.45-1.44,0,0,0,0a.87.87,0,0,1-.23-.68,1,1,0,0,1,.28-.68.7.7,0,0,1,.65-.27,3.19,3.19,0,0,1,.64.26l4.07,2.27.06,0,.08.07a.63.63,0,0,1,.19.41.54.54,0,0,1-.16.43L655.34,64.77l1.36,1,.11.09.13.12a1.22,1.22,0,0,1,.37.68.72.72,0,0,1-.23.62,1,1,0,0,1-1.45,0l-1.41-1.1-.82-.62a5.72,5.72,0,0,1-.73-.6.53.53,0,0,1-.17-.58,1.69,1.69,0,0,1,.38-.56l.56-.56a6.08,6.08,0,0,1-2.23-.23,4.78,4.78,0,0,1-2.16-1.3A5.93,5.93,0,0,1,647.1,57a8.18,8.18,0,0,1,7.15-7.08Zm-4.75,7.36a3.43,3.43,0,0,0,1.06,3.23,4.61,4.61,0,0,0,2.12,1.28,5.32,5.32,0,0,0,2.2.11l4.58-4.57a5.2,5.2,0,0,0-.41-2.07,6.07,6.07,0,0,0-1.38-2,3.29,3.29,0,0,0-3.18-1,6.44,6.44,0,0,0-3.2,1.78A6.26,6.26,0,0,0,649.5,57.25Z" transform="translate(-8.15 -7.38)"/><path class="cls-4" d="M659,69.58a7.59,7.59,0,0,1,8.19-6.21,7.3,7.3,0,0,1,4.67,3,7,7,0,0,1,1.55,5.24,7.67,7.67,0,0,1-8.14,6.19,7,7,0,0,1-4.64-2.9A7.23,7.23,0,0,1,659,69.58Zm8.08-3.88a6.09,6.09,0,0,0-5.81,4.41,4.22,4.22,0,0,0,.94,3.59,4,4,0,0,0,3.16,1.77,6.18,6.18,0,0,0,5.77-4.38,4,4,0,0,0-.86-3.53A4.25,4.25,0,0,0,667.05,65.7Z" transform="translate(-8.15 -7.38)"/><path class="cls-4" d="M680.57,83.5a5,5,0,0,0-1.8-1.83,4.78,4.78,0,0,0-2.11-.68l-6.52,3.87,1.58,2.68a.68.68,0,0,1,0,.71,1.35,1.35,0,0,1-.54.55,1.08,1.08,0,0,1-.7.15.76.76,0,0,1-.58-.39L666,82a.87.87,0,0,1-.13-.76,1.09,1.09,0,0,1,.5-.57,1.28,1.28,0,0,1,.74-.19.78.78,0,0,1,.61.42l1.16,2L677,78l-1.2-1.22,0,0-.05-.08a.94.94,0,0,1-.09-.71.87.87,0,0,1,.4-.59,1.17,1.17,0,0,1,.63-.18,1,1,0,0,1,.55.25l2.45,2.32s0,0,0,0a.11.11,0,0,1,0,0l0,.06a.66.66,0,0,1,.09.43.48.48,0,0,1-.24.35l-1.77,1.33a6.29,6.29,0,0,1,2.77.81,6.63,6.63,0,0,1,2.36,2.49,1.15,1.15,0,0,1,.15.7.73.73,0,0,1-.39.57l-2.13,1.26a.87.87,0,0,1-.76.13,1.11,1.11,0,0,1-.56-.5,1.24,1.24,0,0,1-.19-.75.78.78,0,0,1,.42-.61Z" transform="translate(-8.15 -7.38)"/><path class="cls-4" d="M677.93,104.28a4.52,4.52,0,0,1-1.43-1.58,2.42,2.42,0,0,1-.21-1.59,2.45,2.45,0,0,1,1-1.3,5,5,0,0,1-2.2-1.44,9.27,9.27,0,0,1-1.63-2.48,4.29,4.29,0,0,1-.23-3.15,3.62,3.62,0,0,1,2.06-2.24A3.55,3.55,0,0,1,680,91.72a44.37,44.37,0,0,1,3.3,5L685,96a1.27,1.27,0,0,0,.83-1.23,4.08,4.08,0,0,0-.36-1.67A6.92,6.92,0,0,0,684.14,91a13.45,13.45,0,0,0-1.77-1.35,1.29,1.29,0,0,1-.17-.15.66.66,0,0,1-.12-.17,1,1,0,0,1,0-.8,1.21,1.21,0,0,1,.59-.61c.84-.38,1.69,0,2.54,1.09a15.35,15.35,0,0,1,1.87,3c.8,1.79,1,3.18.51,4.18a6.3,6.3,0,0,1-3.35,2.69l-5.34,2.4a1.28,1.28,0,0,0-.49.36.4.4,0,0,0-.06.45,1.82,1.82,0,0,0,1.05.82,1.77,1.77,0,0,1,1,.71.78.78,0,0,1-.09.64,1.07,1.07,0,0,1-.49.53A1.88,1.88,0,0,1,677.93,104.28Zm3.76-6.81c-.62-1.06-1.37-2.24-2.25-3.55s-1.91-1.7-3.09-1.17a1.66,1.66,0,0,0-1,1.27,3.11,3.11,0,0,0,.28,1.79,5.54,5.54,0,0,0,1.31,1.84,8.46,8.46,0,0,0,1.71,1.21Z" transform="translate(-8.15 -7.38)"/><path class="cls-4" d="M681.51,110.85a.81.81,0,0,1,.48.56l.44,1.53,9-2.62-.9-1.47,0-.06,0-.09a.91.91,0,0,1,.09-.71.89.89,0,0,1,.54-.47,1.11,1.11,0,0,1,.65,0,.79.79,0,0,1,.47.38l1.93,3.31,0,.07,0,.1a.63.63,0,0,1,0,.45.48.48,0,0,1-.34.27l-10.8,3.14.5,1.72a.72.72,0,0,1-.13.7,1.37,1.37,0,0,1-.67.4,1,1,0,0,1-.7,0,.76.76,0,0,1-.44-.54L680.08,112a.91.91,0,0,1,0-.77,1,1,0,0,1,.61-.42A1.26,1.26,0,0,1,681.51,110.85ZM697,108.57a1.69,1.69,0,0,1,1-.85,1.77,1.77,0,0,1,2.19,1.21,1.66,1.66,0,0,1-.15,1.34,1.8,1.8,0,0,1-2.4.69,1.64,1.64,0,0,1-.84-1A1.66,1.66,0,0,1,697,108.57Z" transform="translate(-8.15 -7.38)"/><path class="cls-4" d="M694.06,123.44a3.1,3.1,0,0,0-2.79-.93l-6.09,1.08.29,1.67a.7.7,0,0,1-.2.68,1.5,1.5,0,0,1-.71.32,1.08,1.08,0,0,1-.71-.1.74.74,0,0,1-.4-.56l-.94-5.35a.87.87,0,0,1,.15-.76,1.09,1.09,0,0,1,.67-.35,1.29,1.29,0,0,1,.76.08.76.76,0,0,1,.42.61l.25,1.42,9.21-1.63-.69-1.57a.16.16,0,0,1,0-.06.37.37,0,0,0,0-.09,1,1,0,0,1,.17-.7.86.86,0,0,1,.58-.4,1.1,1.1,0,0,1,.66,0,1,1,0,0,1,.42.43l1.48,3a.18.18,0,0,1,0,.06v.12a.66.66,0,0,1-.06.44.47.47,0,0,1-.35.24l-2.12.62a5.38,5.38,0,0,1,2.21,1.63,5.94,5.94,0,0,1,1.34,2.84,4.41,4.41,0,0,1-3.84,5.48L686.83,133l.26,1.44a.69.69,0,0,1-.21.68,1.39,1.39,0,0,1-.7.33,1.09,1.09,0,0,1-.71-.11.72.72,0,0,1-.4-.57l-1-5.58a.87.87,0,0,1,.15-.75,1.08,1.08,0,0,1,.67-.36,1.21,1.21,0,0,1,.76.09.73.73,0,0,1,.42.6l.34,1.92,6.73-1.18a3.18,3.18,0,0,0,2-1.08,2.6,2.6,0,0,0,.42-2.21A4.89,4.89,0,0,0,694.06,123.44Z" transform="translate(-8.15 -7.38)"/><path class="cls-4" d="M687.72,143.44a1,1,0,0,1,.69.95.77.77,0,0,1-.22.61.94.94,0,0,1-.61.28,1.83,1.83,0,0,1-1.71-1.14,5.63,5.63,0,0,1-.75-2.38,3.39,3.39,0,0,1,.8-2.44,3,3,0,0,1,2.17-1.16l8.22-.51-.11-1.74a.92.92,0,0,1,.23-.74,1.14,1.14,0,0,1,.71-.27,1.26,1.26,0,0,1,.75.17.74.74,0,0,1,.36.64l.11,1.81c.7,0,1.65,0,2.83,0s1.8.41,1.84,1.07a1.6,1.6,0,0,1,0,.51,1.34,1.34,0,0,1-.2.44l-.23,0-.34,0-.34,0-3.38.21.19,3a.67.67,0,0,1-.28.66,1.33,1.33,0,0,1-.74.24,1,1,0,0,1-.69-.18.75.75,0,0,1-.34-.61l-.19-3-7.85.49a1.7,1.7,0,0,0-1.27.5A1.47,1.47,0,0,0,687,142C687.05,142.78,687.29,143.25,687.72,143.44Z" transform="translate(-8.15 -7.38)"/><path class="cls-4" d="M692.26,148.92a4.41,4.41,0,0,0-3.61,1.28,5.19,5.19,0,0,0-1.36,3.45,4.13,4.13,0,0,0,.46,2.34,11.75,11.75,0,0,0,1.19,1.66,1.34,1.34,0,0,1,.22.38,1.39,1.39,0,0,1,.06.4,1.2,1.2,0,0,1-.32.78,1,1,0,0,1-.77.29c-1,0-1.74-.79-2.26-2.24a10.52,10.52,0,0,1-.7-3.78,7.44,7.44,0,0,1,2.09-5.17,6.51,6.51,0,0,1,5.16-1.86,7.14,7.14,0,0,1,5.07,2.09,6.8,6.8,0,0,1,1.78,5.21,6.41,6.41,0,0,1-1.81,4.18,5.35,5.35,0,0,1-4.3,1.75c-.59,0-.94-.22-1-.59a5.9,5.9,0,0,1-.21-1.37Zm4.25,7a3.85,3.85,0,0,0,.78-2.2,4.91,4.91,0,0,0-.86-3.28,3.71,3.71,0,0,0-2.57-1.46l-.28,7a1.46,1.46,0,0,0,.11.6.44.44,0,0,0,.43.28A2.61,2.61,0,0,0,696.51,155.87Z" transform="translate(-8.15 -7.38)"/><path class="cls-4" d="M697.17,164.87a6.77,6.77,0,0,1,.58,4.23,8,8,0,0,1-.75,2.33,5.89,5.89,0,0,1-1.25,1.67l1.27,1.81a2.33,2.33,0,0,1,.47,1.18,4.94,4.94,0,0,1,0,1,2.33,2.33,0,0,1-.38,1,.81.81,0,0,1-.86.31,1,1,0,0,1-.68-.62,3,3,0,0,1-.07-1.7h0l-.92-2.18a10.56,10.56,0,0,1-1.39.33,4.8,4.8,0,0,1-1.56,0,3.76,3.76,0,0,1-3.06-2.32,7.77,7.77,0,0,1-.41-4.41c0-.14,0-.31.08-.5l.09-.57a4.93,4.93,0,0,0,0-1.43.9.9,0,0,0-.83-.82c-.38-.06-.67.14-.84.59a7.47,7.47,0,0,0-.4,1.48l-.09.56c0,.19-.06.35-.09.5a16.42,16.42,0,0,1-1.43,4.72c-.65,1.31-1.92,1.8-3.81,1.49a2.87,2.87,0,0,1-2.76-2.73,20.74,20.74,0,0,1,.26-5,9.27,9.27,0,0,1,1.46-3.68,2.92,2.92,0,0,1,3.13-1.35,3.56,3.56,0,0,1,1.91.83,3.4,3.4,0,0,1,.91,1.59,4.13,4.13,0,0,1,.9-.86,1.74,1.74,0,0,1,1.34-.26,1.89,1.89,0,0,1,1.37.75,3,3,0,0,1,.47,1.44,7.14,7.14,0,0,1,1.76-1.43,3.55,3.55,0,0,1,2.38-.28A4.09,4.09,0,0,1,697.17,164.87Zm-13-1.5a2,2,0,0,0-1.16-.58,1.72,1.72,0,0,0-1.85.86,6.62,6.62,0,0,0-.89,2.46,19.57,19.57,0,0,0-.29,3.39,1.63,1.63,0,0,0,1.45,1.82,1.48,1.48,0,0,0,1.76-.86,9.21,9.21,0,0,0,.73-2.43c0-.23.07-.45.1-.65s.07-.37.09-.54a9.92,9.92,0,0,1,.25-1.09,14.06,14.06,0,0,1,.54-1.51A7.66,7.66,0,0,0,684.18,163.37Zm11.51,2.94a3.26,3.26,0,0,0-2.39-1.4,2.75,2.75,0,0,0-2.44.59,3.9,3.9,0,0,0-1.16,2.33,4.1,4.1,0,0,0,.28,2.58,2.82,2.82,0,0,0,2.25,1.34,3.53,3.53,0,0,0,2.63-.43,3.34,3.34,0,0,0,1.29-2.32A3.7,3.7,0,0,0,695.69,166.31Z" transform="translate(-8.15 -7.38)"/><path class="cls-4" d="M691.1,188.32a5,5,0,0,0,.1-2.56,4.84,4.84,0,0,0-1-2L683,181.67l-.86,3a.73.73,0,0,1-.49.53,1.35,1.35,0,0,1-.77,0,1.08,1.08,0,0,1-.59-.4.75.75,0,0,1-.11-.7l2.12-7.38a.9.9,0,0,1,.46-.62,1.15,1.15,0,0,1,.76,0,1.28,1.28,0,0,1,.65.41.74.74,0,0,1,.11.73l-.63,2.19,9,2.58.07-1.71v-.07s0-.06,0-.09a.94.94,0,0,1,.46-.55.85.85,0,0,1,.7-.11,1.06,1.06,0,0,1,.56.33.94.94,0,0,1,.2.57v3.38l0,0a.35.35,0,0,0,0,.06l0,.07a.72.72,0,0,1-.25.36.44.44,0,0,1-.42.06l-2.18-.37a6.28,6.28,0,0,1,1.31,2.57,6.7,6.7,0,0,1-.2,3.42,1.12,1.12,0,0,1-.4.59.73.73,0,0,1-.69.11l-2.37-.68a.85.85,0,0,1-.61-.47,1.06,1.06,0,0,1,0-.75,1.28,1.28,0,0,1,.41-.65.74.74,0,0,1,.73-.11Z" transform="translate(-8.15 -7.38)"/><path class="cls-4" d="M674.17,200.67a4.64,4.64,0,0,1,.16-2.12,2.16,2.16,0,0,1,2.63-1.43,5,5,0,0,1-.46-2.59,8.9,8.9,0,0,1,.69-2.89,4.26,4.26,0,0,1,2.13-2.33,3.59,3.59,0,0,1,3,0,3.53,3.53,0,0,1,2.35,4.26,43.42,43.42,0,0,1-1.4,5.87l1.74.72a1.27,1.27,0,0,0,1.46-.24,4,4,0,0,0,1-1.41,6.63,6.63,0,0,0,.62-2.42,12.36,12.36,0,0,0-.23-2.21.88.88,0,0,1,0-.23.48.48,0,0,1,0-.2.93.93,0,0,1,.62-.51,1.13,1.13,0,0,1,.83,0c.86.35,1.18,1.22,1,2.6a15.83,15.83,0,0,1-.88,3.4q-1.12,2.72-2.7,3.24a6.32,6.32,0,0,1-4.25-.59l-5.41-2.24a1.24,1.24,0,0,0-.6-.11.4.4,0,0,0-.37.27,1.83,1.83,0,0,0,.13,1.32,1.78,1.78,0,0,1,.17,1.23c-.06.16-.24.28-.52.37a1.07,1.07,0,0,1-.73,0Q674.31,202.07,674.17,200.67Zm7.53-1.93c.35-1.18.69-2.54,1-4.08s-.08-2.55-1.27-3a1.62,1.62,0,0,0-1.63.12,3,3,0,0,0-1.11,1.43,5.32,5.32,0,0,0-.44,2.21,8.7,8.7,0,0,0,.28,2.08Z" transform="translate(-8.15 -7.38)"/><path class="cls-4" d="M688.11,216.23a.53.53,0,0,1-.46,0l-15.49-8.34-1.34,2.49a.69.69,0,0,1-.59.41,1.3,1.3,0,0,1-.75-.18,1.08,1.08,0,0,1-.49-.52.76.76,0,0,1,0-.7l3.68-6.83a.9.9,0,0,1,.59-.51,1.12,1.12,0,0,1,.74.14,1.25,1.25,0,0,1,.55.54.76.76,0,0,1-.05.74l-1.25,2.32,13.79,7.42.66-2.74s0-.05,0-.05l0,0a.85.85,0,0,1,.59-.42,1,1,0,0,1,.73.07q.43.24.45.54a3,3,0,0,1-.06.7l-1,4.54a.64.64,0,0,0,0,.07.36.36,0,0,1,0,.09A.66.66,0,0,1,688.11,216.23Z" transform="translate(-8.15 -7.38)"/><path class="cls-5" d="M669.64,184.8h0A6.9,6.9,0,0,0,666,194h0a6.91,6.91,0,0,1-4.87,9.56h0a6.91,6.91,0,0,0-5.28,8.35h0a6.91,6.91,0,0,1-6.56,8.49h0a6.92,6.92,0,0,0-6.73,7.23h0a6.91,6.91,0,0,1-8,7.14h0a6.91,6.91,0,0,0-7.95,5.87h0a6.91,6.91,0,0,1-9.17,5.56h0a6.92,6.92,0,0,0-8.89,4.32h0a6.91,6.91,0,0,1-10,3.78h0a6.92,6.92,0,0,0-9.53,2.62h0a6.91,6.91,0,0,1-10.56,1.88h0a6.91,6.91,0,0,0-9.84.82h0a6.91,6.91,0,0,1-10.73-.11h0a6.91,6.91,0,0,0-9.83-1h0a6.91,6.91,0,0,1-10.52-2.09h0a6.9,6.9,0,0,0-9.48-2.8h0a6.91,6.91,0,0,1-10-4h0a6.91,6.91,0,0,0-8.8-4.48h0a6.9,6.9,0,0,1-9.07-5.73h0a6.91,6.91,0,0,0-7.82-6h0a6.9,6.9,0,0,1-7.85-7.31h0a6.91,6.91,0,0,0-6.58-7.37h0a6.92,6.92,0,0,1-6.38-8.63h0a6.91,6.91,0,0,0-5.11-8.45h0a6.9,6.9,0,0,1-4.68-9.65h0a6.91,6.91,0,0,0-3.48-9.24h0a6.92,6.92,0,0,1-2.84-10.35h0a6.92,6.92,0,0,0-1.73-9.73h0a6.91,6.91,0,0,1-.89-10.69h0a6.91,6.91,0,0,0,.1-9.87h0A6.92,6.92,0,0,1,454,131.36h0a6.9,6.9,0,0,0,1.92-9.69h0a6.91,6.91,0,0,1,3-10.28h0a6.91,6.91,0,0,0,3.66-9.18h0a6.9,6.9,0,0,1,4.86-9.56h0a6.91,6.91,0,0,0,5.28-8.35h0a6.91,6.91,0,0,1,6.55-8.5h0A6.91,6.91,0,0,0,486,68.55h0a6.89,6.89,0,0,1,8-7.14h0A6.9,6.9,0,0,0,502,55.54h0A6.91,6.91,0,0,1,511.14,50h0A6.9,6.9,0,0,0,520,45.66h0a6.92,6.92,0,0,1,10-3.79h0a6.91,6.91,0,0,0,9.52-2.62h0a6.91,6.91,0,0,1,10.57-1.87h0a6.92,6.92,0,0,0,9.85-.81h0a6.91,6.91,0,0,1,10.73.12h0a6.91,6.91,0,0,0,9.82,1h0a6.91,6.91,0,0,1,10.52,2.08h0a6.92,6.92,0,0,0,9.48,2.8h0a6.9,6.9,0,0,1,10,4h0a6.9,6.9,0,0,0,8.8,4.48h0a6.91,6.91,0,0,1,9.07,5.74h0a6.9,6.9,0,0,0,7.82,6h0a6.91,6.91,0,0,1,7.85,7.31h0a6.9,6.9,0,0,0,6.57,7.37h0a6.91,6.91,0,0,1,6.37,8.63h0a6.9,6.9,0,0,0,5.12,8.45h0a6.9,6.9,0,0,1,4.69,9.64h0a6.9,6.9,0,0,0,3.48,9.24h0a6.9,6.9,0,0,1,2.84,10.34h0a6.91,6.91,0,0,0,1.72,9.72h0a6.92,6.92,0,0,1,.88,10.7h0a6.9,6.9,0,0,0-.1,9.87h0a6.91,6.91,0,0,1-1.11,10.67h0a6.91,6.91,0,0,0-1.92,9.69h0A6.91,6.91,0,0,1,669.64,184.8Z" transform="translate(-8.15 -7.38)"/><path class="cls-6" d="M638.45,208.14,547.78,211A32.79,32.79,0,0,1,514,179.27l-2.83-89.41h.09A32.69,32.69,0,0,1,545,121.51l1.39,44a12.74,12.74,0,0,0,13.13,12.34l45.2-1.43a32.77,32.77,0,0,1,33.78,31.74Z" transform="translate(-8.15 -7.38)"/><path class="cls-6" d="M636.93,159.9l-56.78,1.8A20.51,20.51,0,0,1,559,141.82l-1.78-56h.07a20.45,20.45,0,0,1,20.93,17.94,16.62,16.62,0,0,1,.16,1.88l.87,27.53a8,8,0,0,0,8.22,7.73l28.3-.9a20.32,20.32,0,0,1,2.07,0A20.54,20.54,0,0,1,636.93,159.9Z" transform="translate(-8.15 -7.38)"/></g></g></svg>